# xmcd
#
# Track frame offsets:
#	150
#	14698
#	36564
#	52796
#	65704
#	79346
#	93156
#
# Disc length: 1503 seconds
# Revision: 0
# Processed by: cddbd v1.5.2PL0 Copyright (c) Steve Scherf et al.
# Submitted via: dBpowerAMP V12.0
#
DISCID=5905dd07
DTITLE=Rusty Stringfield - Rusty Stringfield
DYEAR=2013
DGENRE=Americana
TTITLE0=Going Back To Jersey
TTITLE1=Won't Get Fooled Again
TTITLE2=Tennessee Mountain Home
TTITLE3=Fat Bottomed Girls
TTITLE4=Don't Look Back
TTITLE5=Leroy's Dustbowl Blues
TTITLE6=You're The One For Me
EXTD=
EXTT0=
EXTT1=
EXTT2=
EXTT3=
EXTT4=
EXTT5=
EXTT6=
PLAYORDER=
